HIERARCHY
ROOT Hips
{
	OFFSET 0.000000 97.167313 0.000000
	CHANNELS 6 Xposition Yposition Zposition Xrotation Yrotation Zrotation
	JOINT Spine
	{
		OFFSET 0.000000 13.784798 0.064400
		CHANNELS 3 Xrotation Yrotation Zrotation
		JOINT Spine1
		{
			OFFSET 0.000000 12.037903 0.404700
			CHANNELS 3 Xrotation Yrotation Zrotation
			JOINT Spine2
			{
				OFFSET 0.000000 17.795601 0.420200
				CHANNELS 3 Xrotation Yrotation Zrotation
				JOINT Neck
				{
					OFFSET 0.000000 39.131302 11.954600
					CHANNELS 3 Xrotation Yrotation Zrotation
					JOINT Head
					{
						OFFSET 0.000000 14.456192 15.627699
						CHANNELS 3 Xrotation Yrotation Zrotation
						JOINT HeadTop_End
						{
							OFFSET 0.000000 15.703506 7.603401
							CHANNELS 3 Xrotation Yrotation Zrotation
							End Site
							{
								OFFSET 0.000000 17.447403 0.000000
							}
						}
					}
				}
				JOINT LeftShoulder
				{
					OFFSET 17.399500 24.608795 1.168800
					CHANNELS 3 Xrotation Yrotation Zrotation
					JOINT LeftArm
					{
						OFFSET 18.980635 5.765305 1.818600
						CHANNELS 3 Xrotation Yrotation Zrotation
						JOINT LeftForeArm
						{
							OFFSET 49.290169 0.000000 0.000000
							CHANNELS 3 Xrotation Yrotation Zrotation
							JOINT LeftHand
							{
								OFFSET 31.562012 0.000000 0.000000
								CHANNELS 3 Xrotation Yrotation Zrotation
								JOINT LeftHandThumb1
								{
									OFFSET 6.133995 -4.388519 7.076070
									CHANNELS 3 Xrotation Yrotation Zrotation
									JOINT LeftHandThumb2
									{
										OFFSET 6.037666 -3.485840 3.485847
										CHANNELS 3 Xrotation Yrotation Zrotation
										JOINT LeftHandThumb3
										{
											OFFSET 6.496506 -3.750763 3.750761
											CHANNELS 3 Xrotation Yrotation Zrotation
											JOINT LeftHandThumb4
											{
												OFFSET 5.616882 -3.242905 3.242910
												CHANNELS 3 Xrotation Yrotation Zrotation
												End Site
												{
													OFFSET -1.254608 7.132141 0.375429
												}
											}
										}
									}
								}
								JOINT LeftHandPinky1
								{
									OFFSET 18.920792 -0.453171 -11.426712
									CHANNELS 3 Xrotation Yrotation Zrotation
									JOINT LeftHandPinky2
									{
										OFFSET 4.919586 0.000000 0.000000
										CHANNELS 3 Xrotation Yrotation Zrotation
										JOINT LeftHandPinky3
										{
											OFFSET 5.233047 0.000000 0.000000
											CHANNELS 3 Xrotation Yrotation Zrotation
											JOINT LeftHandPinky4
											{
												OFFSET 5.571716 0.000000 0.000000
												CHANNELS 3 Xrotation Yrotation Zrotation
												End Site
												{
													OFFSET -3.459808 4.342407 -0.466164
												}
											}
										}
									}
								}
								JOINT LeftHandRing1
								{
									OFFSET 22.726120 -0.094986 -6.500475
									CHANNELS 3 Xrotation Yrotation Zrotation
									JOINT LeftHandRing2
									{
										OFFSET 6.408615 0.000000 0.000000
										CHANNELS 3 Xrotation Yrotation Zrotation
										JOINT LeftHandRing3
										{
											OFFSET 6.150223 0.000000 0.000000
											CHANNELS 3 Xrotation Yrotation Zrotation
											JOINT LeftHandRing4
											{
												OFFSET 6.145386 0.000000 0.000000
												CHANNELS 3 Xrotation Yrotation Zrotation
												End Site
												{
													OFFSET -3.671402 4.923981 -0.202372
												}
											}
										}
									}
								}
								JOINT LeftHandMiddle1
								{
									OFFSET 23.373947 0.000000 0.000001
									CHANNELS 3 Xrotation Yrotation Zrotation
									JOINT LeftHandMiddle2
									{
										OFFSET 6.996567 0.000000 0.000000
										CHANNELS 3 Xrotation Yrotation Zrotation
										JOINT LeftHandMiddle3
										{
											OFFSET 7.015945 0.000000 0.000000
											CHANNELS 3 Xrotation Yrotation Zrotation
											JOINT LeftHandMiddle4
											{
												OFFSET 7.721573 0.000000 0.000000
												CHANNELS 3 Xrotation Yrotation Zrotation
												End Site
												{
													OFFSET -4.651108 6.158463 0.251582
												}
											}
										}
									}
								}
								JOINT LeftHandIndex1
								{
									OFFSET 21.310577 -0.490082 6.209344
									CHANNELS 3 Xrotation Yrotation Zrotation
									JOINT LeftHandIndex2
									{
										OFFSET 7.536453 0.000000 0.000000
										CHANNELS 3 Xrotation Yrotation Zrotation
										JOINT LeftHandIndex3
										{
											OFFSET 7.512344 0.000000 0.000000
											CHANNELS 3 Xrotation Yrotation Zrotation
											JOINT LeftHandIndex4
											{
												OFFSET 10.212402 0.000000 0.000001
												CHANNELS 3 Xrotation Yrotation Zrotation
												End Site
												{
													OFFSET -5.180801 8.690506 1.388433
												}
											}
										}
									}
								}
							}
						}
					}
				}
				JOINT RightShoulder
				{
					OFFSET -17.399500 24.608795 1.168800
					CHANNELS 3 Xrotation Yrotation Zrotation
					JOINT RightArm
					{
						OFFSET -18.980635 5.765305 1.818600
						CHANNELS 3 Xrotation Yrotation Zrotation
						JOINT RightForeArm
						{
							OFFSET -49.290169 0.000000 0.000000
							CHANNELS 3 Xrotation Yrotation Zrotation
							JOINT RightHand
							{
								OFFSET -31.562012 0.000000 0.000000
								CHANNELS 3 Xrotation Yrotation Zrotation
								JOINT RightHandThumb1
								{
									OFFSET -6.133995 -4.388519 7.076070
									CHANNELS 3 Xrotation Yrotation Zrotation
									JOINT RightHandThumb2
									{
										OFFSET -6.037666 -3.485840 3.485847
										CHANNELS 3 Xrotation Yrotation Zrotation
										JOINT RightHandThumb3
										{
											OFFSET -6.496506 -3.750763 3.750761
											CHANNELS 3 Xrotation Yrotation Zrotation
											JOINT RightHandThumb4
											{
												OFFSET -5.616882 -3.242905 3.242910
												CHANNELS 3 Xrotation Yrotation Zrotation
												End Site
												{
													OFFSET 1.254608 7.132141 0.375429
												}
											}
										}
									}
								}
								JOINT RightHandIndex1
								{
									OFFSET -21.310577 -0.490082 6.209344
									CHANNELS 3 Xrotation Yrotation Zrotation
									JOINT RightHandIndex2
									{
										OFFSET -7.536453 0.000000 0.000000
										CHANNELS 3 Xrotation Yrotation Zrotation
										JOINT RightHandIndex3
										{
											OFFSET -7.512344 0.000000 0.000000
											CHANNELS 3 Xrotation Yrotation Zrotation
											JOINT RightHandIndex4
											{
												OFFSET -10.212402 0.000000 0.000001
												CHANNELS 3 Xrotation Yrotation Zrotation
												End Site
												{
													OFFSET 5.180801 8.690506 1.388433
												}
											}
										}
									}
								}
								JOINT RightHandMiddle1
								{
									OFFSET -23.373947 0.000000 0.000001
									CHANNELS 3 Xrotation Yrotation Zrotation
									JOINT RightHandMiddle2
									{
										OFFSET -6.996567 0.000000 0.000000
										CHANNELS 3 Xrotation Yrotation Zrotation
										JOINT RightHandMiddle3
										{
											OFFSET -7.015945 0.000000 0.000000
											CHANNELS 3 Xrotation Yrotation Zrotation
											JOINT RightHandMiddle4
											{
												OFFSET -7.721573 0.000000 0.000000
												CHANNELS 3 Xrotation Yrotation Zrotation
												End Site
												{
													OFFSET 4.651108 6.158463 0.251582
												}
											}
										}
									}
								}
								JOINT RightHandRing1
								{
									OFFSET -22.726120 -0.094986 -6.500475
									CHANNELS 3 Xrotation Yrotation Zrotation
									JOINT RightHandRing2
									{
										OFFSET -6.408615 0.000000 0.000000
										CHANNELS 3 Xrotation Yrotation Zrotation
										JOINT RightHandRing3
										{
											OFFSET -6.150223 0.000000 0.000000
											CHANNELS 3 Xrotation Yrotation Zrotation
											JOINT RightHandRing4
											{
												OFFSET -6.145386 0.000000 0.000000
												CHANNELS 3 Xrotation Yrotation Zrotation
												End Site
												{
													OFFSET 3.671402 4.923981 -0.202372
												}
											}
										}
									}
								}
								JOINT RightHandPinky1
								{
									OFFSET -18.920792 -0.453171 -11.426712
									CHANNELS 3 Xrotation Yrotation Zrotation
									JOINT RightHandPinky2
									{
										OFFSET -4.919586 0.000000 0.000000
										CHANNELS 3 Xrotation Yrotation Zrotation
										JOINT RightHandPinky3
										{
											OFFSET -5.233047 0.000000 0.000000
											CHANNELS 3 Xrotation Yrotation Zrotation
											JOINT RightHandPinky4
											{
												OFFSET -5.571716 0.000000 0.000000
												CHANNELS 3 Xrotation Yrotation Zrotation
												End Site
												{
													OFFSET 3.459808 4.342407 -0.466164
												}
											}
										}
									}
								}
							}
						}
					}
				}
			}
		}
	}
	JOINT LeftUpLeg
	{
		OFFSET 19.899099 -7.885101 -3.429500
		CHANNELS 3 Xrotation Yrotation Zrotation
		JOINT LeftLeg
		{
			OFFSET 1.745560 -36.997807 10.304700
			CHANNELS 3 Xrotation Yrotation Zrotation
			JOINT LeftFoot
			{
				OFFSET -1.745558 -29.803308 -13.615400
				CHANNELS 3 Xrotation Yrotation Zrotation
				JOINT LeftToeBase
				{
					OFFSET 1.181900 -18.539904 15.226099
					CHANNELS 3 Xrotation Yrotation Zrotation
					JOINT LeftToe_End
					{
						OFFSET -0.863701 1.402801 16.534700
						CHANNELS 3 Xrotation Yrotation Zrotation
						End Site
						{
							OFFSET 0.000000 16.616566 0.000000
						}
					}
				}
			}
		}
	}
	JOINT RightUpLeg
	{
		OFFSET -19.899099 -7.885101 -3.429500
		CHANNELS 3 Xrotation Yrotation Zrotation
		JOINT RightLeg
		{
			OFFSET -1.745560 -36.997807 10.304700
			CHANNELS 3 Xrotation Yrotation Zrotation
			JOINT RightFoot
			{
				OFFSET 1.745558 -29.803308 -13.615400
				CHANNELS 3 Xrotation Yrotation Zrotation
				JOINT RightToeBase
				{
					OFFSET -1.181900 -18.539904 15.226099
					CHANNELS 3 Xrotation Yrotation Zrotation
					JOINT RightToe_End
					{
						OFFSET 0.863701 1.402801 16.534700
						CHANNELS 3 Xrotation Yrotation Zrotation
						End Site
						{
							OFFSET 0.000000 16.616566 0.000000
						}
					}
				}
			}
		}
	}
}
MOTION
Frames: 4
Frame Time: 0.033333
1.057698 90.901413 5.263337 5.784209 2.858515 1.573403 -12.310128 1.577364 -6.736207 -4.290299 0.445822 -1.898627 -4.296326 0.486275 -1.893454 -2.752022 -1.486544 0.249224 20.045345 -13.236723 3.925055 0.000000 -0.000001 -0.000000 2.309130 15.396694 -10.792051 -24.054275 8.967285 -51.981732 0.000007 -48.131773 -0.000009 51.917238 -0.003564 59.471529 -5.210081 -20.847739 -4.348147 14.838429 5.311578 -9.728649 -19.461029 -15.641420 13.609312 0.000002 -0.000003 -0.000001 24.224104 35.277777 -39.182767 -0.000001 -0.000004 -0.000014 0.190469 -1.483143 14.634833 0.000000 0.000001 -0.000000 8.064940 20.239623 -25.314143 -0.000001 -0.000291 -0.000003 0.198054 -1.511912 14.925345 0.000000 0.000001 0.000003 0.696847 5.095854 -20.867541 -0.000012 -0.000027 0.000020 0.198057 -1.511910 14.925355 -0.000003 -0.000002 -0.000001 -2.102993 -10.802888 -24.903459 0.000007 0.007250 -0.070679 0.197723 -1.510653 14.912676 -0.000003 0.000005 0.000002 2.605250 -12.440444 15.029485 -23.276767 -18.261305 48.822322 0.000035 52.766725 -0.000051 41.792664 12.860259 -62.703944 -6.951730 20.573715 -0.051427 16.614439 -14.664483 2.553758 -13.759500 10.569089 -8.559513 0.000001 -0.000001 0.000002 4.970086 14.011804 9.266899 0.169316 -1.245611 15.480702 0.007496 -0.264528 3.249146 0.000001 -0.000001 0.000001 -0.660858 1.268933 10.310905 0.177731 -1.275601 15.863275 0.015605 -0.381259 4.685383 -0.000005 0.000001 -0.000004 1.980460 -8.157761 20.894194 0.000004 0.000007 -0.000000 0.146607 1.160574 -14.399709 -0.000003 -0.000002 -0.000003 9.532374 -26.891679 39.654719 0.000003 -0.000012 0.000005 0.133592 1.108622 -13.742078 -0.000001 0.000000 0.000000 -8.685934 7.306481 6.704217 17.790187 3.923962 -1.151149 -12.476213 5.502538 -8.131094 -1.964787 0.000009 -0.000001 0.000000 0.000002 0.000000 -9.661225 -8.871645 -11.548825 21.490606 -7.251038 2.458882 -15.482599 -6.444157 9.369791 -0.647724 0.000010 -0.000002 -0.000000 -0.000001 -0.000000 
0.483738 90.870430 5.431571 6.286564 3.497587 1.842385 -12.941876 1.447716 -6.600964 -4.396873 0.404481 -1.856297 -4.402226 0.443320 -1.851368 -2.890434 -1.533599 0.237377 19.392785 -13.843125 4.086094 0.000000 -0.000001 0.000000 2.237336 16.524097 -10.607411 -28.865862 14.257897 -50.204435 0.000021 -50.262580 0.000013 52.359329 -0.067150 60.612963 -5.165900 -20.754713 -4.290827 15.179062 6.311988 -10.209109 -18.961601 -15.384777 12.541998 -0.000002 0.000001 -0.000002 27.046916 33.845056 -44.361566 0.000007 0.000002 -0.000062 0.186899 -1.469420 14.496253 0.000003 0.000002 -0.000004 9.027038 20.170189 -28.346337 -0.000012 -0.000433 -0.000016 0.191066 -1.485422 14.657770 -0.000001 0.000000 0.000005 0.892260 5.456693 -24.115229 0.000007 0.003912 -0.038134 0.198054 -1.511918 14.925364 -0.000001 0.000002 0.000004 -2.775248 -10.210171 -28.343811 0.000081 0.030668 -0.299296 0.197555 -1.510032 14.906367 -0.000007 -0.000001 -0.000001 2.781498 -13.450032 15.520908 -27.754858 -22.171397 45.586568 0.000034 54.101546 -0.000031 42.791736 12.450029 -64.210663 -6.902845 20.449419 -0.118798 16.989062 -15.489763 3.000741 -13.504380 8.496515 -6.844352 -0.000004 -0.000000 -0.000002 4.236807 13.812731 11.946790 0.152286 -1.182453 14.677518 0.007174 -0.258767 3.178196 -0.000002 -0.000003 0.000001 -0.917485 1.279504 13.422639 0.166742 -1.236331 15.362380 0.012475 -0.341093 4.190852 -0.000001 0.000003 -0.000004 2.346974 -8.391696 24.012893 -0.000004 -0.000001 -0.000004 0.143925 1.150043 -14.266240 -0.000000 -0.000001 -0.000003 10.852166 -26.277616 43.821992 -0.000003 -0.000015 0.000033 0.132557 1.104396 -13.688430 0.000002 -0.000003 -0.000003 -9.332478 7.352809 6.933151 17.359068 3.262133 -1.413456 -11.718127 5.415562 -8.256461 -2.068298 0.000003 0.000001 0.000000 -0.000000 0.000000 -9.916323 -8.759612 -11.199621 21.820948 -7.751157 2.377515 -16.051310 -6.910889 8.653057 -0.722196 0.000006 -0.000002 0.000000 -0.000002 -0.000000 
-0.116387 90.847847 5.523387 6.421396 4.078888 2.134934 -13.140115 1.320809 -6.438576 -4.398932 0.368432 -1.805703 -4.403723 0.405863 -1.801168 -2.986377 -1.564363 0.285090 18.807172 -14.135795 4.268934 -0.000000 0.000000 -0.000000 2.004944 17.215734 -9.978770 -31.724265 18.023682 -48.367626 0.000026 -52.356050 0.000014 52.909254 -0.322654 61.792865 -5.113287 -20.643473 -4.222549 15.525534 7.272776 -10.667699 -18.463511 -15.281208 12.017810 0.000002 0.000001 0.000001 28.686419 32.563883 -47.778519 0.000006 0.000003 -0.000018 0.184482 -1.460018 14.401502 0.000000 -0.000001 0.000001 9.670835 20.036734 -30.481495 -0.000003 -0.000581 0.000024 0.179695 -1.441257 14.212539 -0.000002 -0.000001 0.000005 1.056488 5.735886 -26.165915 0.000031 0.021632 -0.211086 0.198049 -1.511905 14.925352 -0.000001 -0.000003 0.000003 -3.168146 -9.893298 -30.051582 0.000085 0.032819 -0.320200 0.197341 -1.509285 14.898687 -0.000003 0.000001 -0.000006 2.792803 -14.093526 15.455801 -30.846091 -25.164186 42.927414 0.000002 55.623346 -0.000002 44.588230 12.387465 -65.832683 -6.848153 20.309694 -0.194210 17.262273 -16.079134 3.302466 -13.422258 7.830362 -6.235520 -0.000001 -0.000001 -0.000000 3.806364 13.782287 13.293992 0.140739 -1.137426 14.106568 0.006541 -0.247062 3.034423 -0.000003 -0.000001 0.000001 -1.146075 1.288773 15.999399 0.160722 -1.214141 15.079979 0.009470 -0.297181 3.650688 -0.000000 0.000000 -0.000008 2.621343 -8.470104 26.678157 -0.000001 -0.000000 0.000008 0.144004 1.150384 -14.270577 -0.000002 0.000002 0.000000 11.575651 -25.690746 46.851645 0.000007 -0.000012 0.000026 0.133125 1.106695 -13.717784 -0.000000 -0.000001 -0.000001 -9.694135 7.407090 7.167653 17.032159 2.637351 -1.632847 -10.907847 5.337151 -8.448298 -2.243025 0.000010 0.000000 -0.000000 -0.000000 -0.000000 -9.913983 -8.681151 -10.889715 22.252102 -7.711311 2.322060 -16.691760 -7.737996 8.133719 -0.819428 -0.000005 -0.000000 -0.000000 0.000002 -0.000000 
-0.710589 90.787155 5.565051 6.380262 4.720558 2.476471 -13.041853 1.131158 -6.309646 -4.356037 0.319333 -1.731450 -4.360169 0.355857 -1.727542 -3.057761 -1.576870 0.311504 18.353229 -14.268864 4.402042 0.000000 0.000000 -0.000000 1.695319 17.423543 -9.127558 -31.999505 19.020511 -47.671278 0.000031 -53.615807 0.000024 53.553635 -0.665875 62.713629 -5.052475 -20.514470 -4.143720 15.566604 7.387138 -10.639100 -18.316932 -15.384100 12.598391 0.000001 0.000001 -0.000002 28.615866 32.234023 -48.046412 -0.000000 -0.000006 -0.000019 0.180431 -1.444159 14.241758 0.000004 -0.000001 -0.000002 9.853031 19.813293 -31.413925 -0.000010 -0.000726 -0.000006 0.173146 -1.415152 13.949729 -0.000002 0.000000 0.000003 1.098633 5.802486 -26.672744 0.000043 0.023112 -0.225515 0.198051 -1.511916 14.925353 0.000000 -0.000002 0.000001 -3.265262 -9.854204 -30.061230 0.000052 0.023960 -0.233807 0.197121 -1.508387 14.889829 -0.000003 0.000001 -0.000001 2.682787 -14.201170 15.052548 -31.917300 -26.934060 41.264509 0.000050 57.220388 -0.000040 46.083167 12.559246 -66.496994 -6.787837 20.154956 -0.277338 17.043467 -15.596927 2.930579 -13.642344 8.985734 -7.206624 0.000000 -0.000001 0.000001 3.908052 13.846464 12.599354 0.130369 -1.095362 13.574633 0.006103 -0.238723 2.931853 -0.000000 0.000004 -0.000001 -1.248578 1.402814 16.754299 0.155592 -1.194994 14.836614 0.008087 -0.274578 3.372623 -0.000000 0.000003 0.000001 2.668374 -8.413862 27.534017 -0.000005 -0.000010 0.000067 0.137453 1.124269 -13.939959 0.000005 -0.000004 -0.000004 11.403283 -25.459740 47.109143 -0.000005 0.000003 0.000009 0.132931 1.105930 -13.707843 0.000003 -0.000000 0.000002 -10.007506 7.417040 7.323850 16.854356 2.021874 -1.781344 -10.100363 5.261795 -8.676091 -2.490793 -0.000005 0.000001 -0.000000 0.000002 0.000000 -9.819188 -8.627231 -10.648598 22.861944 -7.733413 2.250277 -17.452475 -8.531110 7.696472 -0.875408 -0.000007 -0.000000 -0.000000 0.000000 -0.000000 
